<?xml version="1.0" encoding="UTF-8" standalone="no"?>
<!DOCTYPE svg PUBLIC "-//W3C//DTD SVG 1.1//EN"
 "http://www.w3.org/Graphics/SVG/1.1/DTD/svg11.dtd">
<!-- Generated by graphviz version 2.44.0 (20200408.0750)
 -->
<!-- Title: dependencies Pages: 1 -->
<svg width="2332pt" height="284pt"
 viewBox="0.00 0.00 2332.00 284.00" xmlns="http://www.w3.org/2000/svg" xmlns:xlink="http://www.w3.org/1999/xlink">
<g id="graph0" class="graph" transform="scale(1 1) rotate(0) translate(4 280)">
<title>dependencies</title>
<polygon fill="white" stroke="transparent" points="-4,4 -4,-280 2328,-280 2328,4 -4,4"/>
<text text-anchor="start" x="1141.01" y="-42.4" font-family="sans-serif" font-weight="bold" font-size="14.00">Legend</text>
<polygon fill="#ffffb3" stroke="transparent" points="928,-10 928,-30 948,-30 948,-10 928,-10"/>
<text text-anchor="start" x="951.63" y="-15.4" font-family="sans-serif" font-size="14.00"> &#160;Declarations</text>
<polygon fill="#8dd3c7" stroke="transparent" points="1041,-10 1041,-30 1061,-30 1061,-10 1041,-10"/>
<text text-anchor="start" x="1064.73" y="-15.4" font-family="sans-serif" font-size="14.00"> &#160;Module</text>
<polygon fill="#80b1d3" stroke="transparent" points="1127,-10 1127,-30 1147,-30 1147,-10 1127,-10"/>
<text text-anchor="start" x="1150.78" y="-15.4" font-family="sans-serif" font-size="14.00"> &#160;Bootstrap</text>
<polygon fill="#fdb462" stroke="transparent" points="1224,-10 1224,-30 1244,-30 1244,-10 1224,-10"/>
<text text-anchor="start" x="1247.67" y="-15.4" font-family="sans-serif" font-size="14.00"> &#160;Providers</text>
<polygon fill="#fb8072" stroke="transparent" points="1320,-10 1320,-30 1340,-30 1340,-10 1320,-10"/>
<text text-anchor="start" x="1343.73" y="-15.4" font-family="sans-serif" font-size="14.00"> &#160;Exports</text>
<g id="clust1" class="cluster">
<title>cluster_AppModule</title>
<polygon fill="none" stroke="black" stroke-dasharray="1,5" points="8,-70 8,-268 2316,-268 2316,-70 8,-70"/>
</g>
<g id="clust17" class="cluster">
<title>cluster_AppModule_imports</title>
<polygon fill="none" stroke="black" points="2164,-78 2164,-130 2308,-130 2308,-78 2164,-78"/>
</g>
<g id="clust19" class="cluster">
<title>cluster_AppModule_bootstrap</title>
<polygon fill="none" stroke="black" points="1123,-208 1123,-260 1247,-260 1247,-208 1123,-208"/>
</g>
<g id="clust2" class="cluster">
<title>cluster_AppModule_declarations</title>
<polygon fill="none" stroke="black" points="16,-78 16,-130 2156,-130 2156,-78 16,-78"/>
</g>
<!-- AppComponent -->
<g id="node1" class="node">
<title>AppComponent</title>
<polygon fill="#ffffb3" stroke="black" points="2147.94,-122 2042.06,-122 2042.06,-86 2147.94,-86 2147.94,-122"/>
<text text-anchor="middle" x="2095" y="-99.8" font-family="Times,serif" font-size="14.00">AppComponent</text>
</g>
<!-- AppModule -->
<g id="node15" class="node">
<title>AppModule</title>
<polygon fill="#8dd3c7" stroke="black" points="1226.66,-187 1223.66,-191 1202.66,-191 1199.66,-187 1143.34,-187 1143.34,-151 1226.66,-151 1226.66,-187"/>
<text text-anchor="middle" x="1185" y="-164.8" font-family="Times,serif" font-size="14.00">AppModule</text>
</g>
<!-- AppComponent&#45;&gt;AppModule -->
<g id="edge1" class="edge">
<title>AppComponent&#45;&gt;AppModule</title>
<path fill="none" stroke="black" d="M2095,-122.29C2095,-144.21 2095,-178 2095,-178 2095,-178 1236.77,-178 1236.77,-178"/>
<polygon fill="black" stroke="black" points="1236.77,-174.5 1226.77,-178 1236.77,-181.5 1236.77,-174.5"/>
</g>
<!-- BlocoumComponent -->
<g id="node2" class="node">
<title>BlocoumComponent</title>
<polygon fill="#ffffb3" stroke="black" points="2024.17,-122 1891.83,-122 1891.83,-86 2024.17,-86 2024.17,-122"/>
<text text-anchor="middle" x="1958" y="-99.8" font-family="Times,serif" font-size="14.00">BlocoumComponent</text>
</g>
<!-- BlocoumComponent&#45;&gt;AppModule -->
<g id="edge2" class="edge">
<title>BlocoumComponent&#45;&gt;AppModule</title>
<path fill="none" stroke="black" d="M1958,-122.03C1958,-142.77 1958,-174 1958,-174 1958,-174 1236.83,-174 1236.83,-174"/>
<polygon fill="black" stroke="black" points="1236.83,-170.5 1226.83,-174 1236.83,-177.5 1236.83,-170.5"/>
</g>
<!-- EmpreendedorismoComponent -->
<g id="node3" class="node">
<title>EmpreendedorismoComponent</title>
<polygon fill="#ffffb3" stroke="black" points="1873.47,-122 1682.53,-122 1682.53,-86 1873.47,-86 1873.47,-122"/>
<text text-anchor="middle" x="1778" y="-99.8" font-family="Times,serif" font-size="14.00">EmpreendedorismoComponent</text>
</g>
<!-- EmpreendedorismoComponent&#45;&gt;AppModule -->
<g id="edge3" class="edge">
<title>EmpreendedorismoComponent&#45;&gt;AppModule</title>
<path fill="none" stroke="black" d="M1778,-122.11C1778,-141.34 1778,-169 1778,-169 1778,-169 1236.7,-169 1236.7,-169"/>
<polygon fill="black" stroke="black" points="1236.7,-165.5 1226.7,-169 1236.7,-172.5 1236.7,-165.5"/>
</g>
<!-- EscolaComponent -->
<g id="node4" class="node">
<title>EscolaComponent</title>
<polygon fill="#ffffb3" stroke="black" points="1664.15,-122 1545.85,-122 1545.85,-86 1664.15,-86 1664.15,-122"/>
<text text-anchor="middle" x="1605" y="-99.8" font-family="Times,serif" font-size="14.00">EscolaComponent</text>
</g>
<!-- EscolaComponent&#45;&gt;AppModule -->
<g id="edge4" class="edge">
<title>EscolaComponent&#45;&gt;AppModule</title>
<path fill="none" stroke="black" d="M1605,-122.3C1605,-140.27 1605,-165 1605,-165 1605,-165 1236.81,-165 1236.81,-165"/>
<polygon fill="black" stroke="black" points="1236.81,-161.5 1226.81,-165 1236.81,-168.5 1236.81,-161.5"/>
</g>
<!-- FinancasComponent -->
<g id="node5" class="node">
<title>FinancasComponent</title>
<polygon fill="#ffffb3" stroke="black" points="1527.59,-122 1396.41,-122 1396.41,-86 1527.59,-86 1527.59,-122"/>
<text text-anchor="middle" x="1462" y="-99.8" font-family="Times,serif" font-size="14.00">FinancasComponent</text>
</g>
<!-- FinancasComponent&#45;&gt;AppModule -->
<g id="edge5" class="edge">
<title>FinancasComponent&#45;&gt;AppModule</title>
<path fill="none" stroke="black" d="M1462,-122.03C1462,-138.4 1462,-160 1462,-160 1462,-160 1236.77,-160 1236.77,-160"/>
<polygon fill="black" stroke="black" points="1236.77,-156.5 1226.77,-160 1236.77,-163.5 1236.77,-156.5"/>
</g>
<!-- FooterComponent -->
<g id="node6" class="node">
<title>FooterComponent</title>
<polygon fill="#ffffb3" stroke="black" points="1378.88,-122 1261.12,-122 1261.12,-86 1378.88,-86 1378.88,-122"/>
<text text-anchor="middle" x="1320" y="-99.8" font-family="Times,serif" font-size="14.00">FooterComponent</text>
</g>
<!-- FooterComponent&#45;&gt;AppModule -->
<g id="edge6" class="edge">
<title>FooterComponent&#45;&gt;AppModule</title>
<path fill="none" stroke="black" d="M1320,-122.19C1320,-137.18 1320,-156 1320,-156 1320,-156 1236.97,-156 1236.97,-156"/>
<polygon fill="black" stroke="black" points="1236.97,-152.5 1226.97,-156 1236.97,-159.5 1236.97,-152.5"/>
</g>
<!-- HomeComponent -->
<g id="node7" class="node">
<title>HomeComponent</title>
<polygon fill="#ffffb3" stroke="black" points="1242.55,-122 1127.45,-122 1127.45,-86 1242.55,-86 1242.55,-122"/>
<text text-anchor="middle" x="1185" y="-99.8" font-family="Times,serif" font-size="14.00">HomeComponent</text>
</g>
<!-- HomeComponent&#45;&gt;AppModule -->
<g id="edge7" class="edge">
<title>HomeComponent&#45;&gt;AppModule</title>
<path fill="none" stroke="black" d="M1185,-122.11C1185,-122.11 1185,-140.99 1185,-140.99"/>
<polygon fill="black" stroke="black" points="1181.5,-140.99 1185,-150.99 1188.5,-140.99 1181.5,-140.99"/>
</g>
<!-- MercadoComponent -->
<g id="node8" class="node">
<title>MercadoComponent</title>
<polygon fill="#ffffb3" stroke="black" points="1109.58,-122 978.42,-122 978.42,-86 1109.58,-86 1109.58,-122"/>
<text text-anchor="middle" x="1044" y="-99.8" font-family="Times,serif" font-size="14.00">MercadoComponent</text>
</g>
<!-- MercadoComponent&#45;&gt;AppModule -->
<g id="edge8" class="edge">
<title>MercadoComponent&#45;&gt;AppModule</title>
<path fill="none" stroke="black" d="M1044,-122.19C1044,-137.18 1044,-156 1044,-156 1044,-156 1133.08,-156 1133.08,-156"/>
<polygon fill="black" stroke="black" points="1133.08,-159.5 1143.08,-156 1133.08,-152.5 1133.08,-159.5"/>
</g>
<!-- NavbarComponent -->
<g id="node9" class="node">
<title>NavbarComponent</title>
<polygon fill="#ffffb3" stroke="black" points="960.03,-122 837.97,-122 837.97,-86 960.03,-86 960.03,-122"/>
<text text-anchor="middle" x="899" y="-99.8" font-family="Times,serif" font-size="14.00">NavbarComponent</text>
</g>
<!-- NavbarComponent&#45;&gt;AppModule -->
<g id="edge9" class="edge">
<title>NavbarComponent&#45;&gt;AppModule</title>
<path fill="none" stroke="black" d="M899,-122.03C899,-138.4 899,-160 899,-160 899,-160 1133.11,-160 1133.11,-160"/>
<polygon fill="black" stroke="black" points="1133.11,-163.5 1143.11,-160 1133.11,-156.5 1133.11,-163.5"/>
</g>
<!-- PagamentoComponent -->
<g id="node10" class="node">
<title>PagamentoComponent</title>
<polygon fill="#ffffb3" stroke="black" points="819.54,-122 676.46,-122 676.46,-86 819.54,-86 819.54,-122"/>
<text text-anchor="middle" x="748" y="-99.8" font-family="Times,serif" font-size="14.00">PagamentoComponent</text>
</g>
<!-- PagamentoComponent&#45;&gt;AppModule -->
<g id="edge10" class="edge">
<title>PagamentoComponent&#45;&gt;AppModule</title>
<path fill="none" stroke="black" d="M748,-122.3C748,-140.27 748,-165 748,-165 748,-165 1133.1,-165 1133.1,-165"/>
<polygon fill="black" stroke="black" points="1133.1,-168.5 1143.1,-165 1133.1,-161.5 1133.1,-168.5"/>
</g>
<!-- SistemaComponent -->
<g id="node11" class="node">
<title>SistemaComponent</title>
<polygon fill="#ffffb3" stroke="black" points="657.66,-122 532.34,-122 532.34,-86 657.66,-86 657.66,-122"/>
<text text-anchor="middle" x="595" y="-99.8" font-family="Times,serif" font-size="14.00">SistemaComponent</text>
</g>
<!-- SistemaComponent&#45;&gt;AppModule -->
<g id="edge11" class="edge">
<title>SistemaComponent&#45;&gt;AppModule</title>
<path fill="none" stroke="black" d="M595,-122.11C595,-141.34 595,-169 595,-169 595,-169 1133.04,-169 1133.04,-169"/>
<polygon fill="black" stroke="black" points="1133.04,-172.5 1143.04,-169 1133.04,-165.5 1133.04,-172.5"/>
</g>
<!-- SolicitarbeneficioComponent -->
<g id="node12" class="node">
<title>SolicitarbeneficioComponent</title>
<polygon fill="#ffffb3" stroke="black" points="514.35,-122 333.65,-122 333.65,-86 514.35,-86 514.35,-122"/>
<text text-anchor="middle" x="424" y="-99.8" font-family="Times,serif" font-size="14.00">SolicitarbeneficioComponent</text>
</g>
<!-- SolicitarbeneficioComponent&#45;&gt;AppModule -->
<g id="edge12" class="edge">
<title>SolicitarbeneficioComponent&#45;&gt;AppModule</title>
<path fill="none" stroke="black" d="M424,-122.03C424,-142.77 424,-174 424,-174 424,-174 1133.27,-174 1133.27,-174"/>
<polygon fill="black" stroke="black" points="1133.27,-177.5 1143.27,-174 1133.27,-170.5 1133.27,-177.5"/>
</g>
<!-- StatusComponent -->
<g id="node13" class="node">
<title>StatusComponent</title>
<polygon fill="#ffffb3" stroke="black" points="315.56,-122 200.44,-122 200.44,-86 315.56,-86 315.56,-122"/>
<text text-anchor="middle" x="258" y="-99.8" font-family="Times,serif" font-size="14.00">StatusComponent</text>
</g>
<!-- StatusComponent&#45;&gt;AppModule -->
<g id="edge13" class="edge">
<title>StatusComponent&#45;&gt;AppModule</title>
<path fill="none" stroke="black" d="M258,-122.29C258,-144.21 258,-178 258,-178 258,-178 1133.06,-178 1133.06,-178"/>
<polygon fill="black" stroke="black" points="1133.06,-181.5 1143.06,-178 1133.06,-174.5 1133.06,-181.5"/>
</g>
<!-- TransferenciaComponent -->
<g id="node14" class="node">
<title>TransferenciaComponent</title>
<polygon fill="#ffffb3" stroke="black" points="182.28,-122 23.72,-122 23.72,-86 182.28,-86 182.28,-122"/>
<text text-anchor="middle" x="103" y="-99.8" font-family="Times,serif" font-size="14.00">TransferenciaComponent</text>
</g>
<!-- TransferenciaComponent&#45;&gt;AppModule -->
<g id="edge14" class="edge">
<title>TransferenciaComponent&#45;&gt;AppModule</title>
<path fill="none" stroke="black" d="M103,-122.32C103,-145.66 103,-183 103,-183 103,-183 1133.25,-183 1133.25,-183"/>
<polygon fill="black" stroke="black" points="1133.25,-186.5 1143.25,-183 1133.25,-179.5 1133.25,-186.5"/>
</g>
<!-- AppComponent  -->
<g id="node17" class="node">
<title>AppComponent </title>
<polygon fill="#80b1d3" stroke="black" points="1239.44,-252 1130.56,-252 1130.56,-216 1239.44,-216 1239.44,-252"/>
<text text-anchor="middle" x="1185" y="-229.8" font-family="Times,serif" font-size="14.00">AppComponent </text>
</g>
<!-- AppModule&#45;&gt;AppComponent  -->
<g id="edge16" class="edge">
<title>AppModule&#45;&gt;AppComponent </title>
<path fill="none" stroke="black" stroke-dasharray="1,5" d="M1185,-187.11C1185,-187.11 1185,-205.99 1185,-205.99"/>
<polygon fill="black" stroke="black" points="1181.5,-205.99 1185,-215.99 1188.5,-205.99 1181.5,-205.99"/>
</g>
<!-- AppRoutingModule -->
<g id="node16" class="node">
<title>AppRoutingModule</title>
<polygon fill="#8dd3c7" stroke="black" points="2300.27,-122 2297.27,-126 2276.27,-126 2273.27,-122 2171.73,-122 2171.73,-86 2300.27,-86 2300.27,-122"/>
<text text-anchor="middle" x="2236" y="-99.8" font-family="Times,serif" font-size="14.00">AppRoutingModule</text>
</g>
<!-- AppRoutingModule&#45;&gt;AppModule -->
<g id="edge15" class="edge">
<title>AppRoutingModule&#45;&gt;AppModule</title>
<path fill="none" stroke="black" d="M2236,-122.32C2236,-145.66 2236,-183 2236,-183 2236,-183 1236.85,-183 1236.85,-183"/>
<polygon fill="black" stroke="black" points="1236.85,-179.5 1226.85,-183 1236.85,-186.5 1236.85,-179.5"/>
</g>
</g>
</svg>
