<?xml version="1.0" encoding="UTF-8" standalone="no"?>
<!DOCTYPE svg PUBLIC "-//W3C//DTD SVG 1.1//EN"
 "http://www.w3.org/Graphics/SVG/1.1/DTD/svg11.dtd">
<!-- Generated by graphviz version 2.44.0 (20200408.0750)
 -->
<!-- Title: dependencies Pages: 1 -->
<svg width="2332pt" height="284pt"
 viewBox="0.00 0.00 2332.00 284.00" xmlns="http://www.w3.org/2000/svg" xmlns:xlink="http://www.w3.org/1999/xlink">
<g id="graph0" class="graph" transform="scale(1 1) rotate(0) translate(4 280)">
<title>dependencies</title>
<polygon fill="white" stroke="transparent" points="-4,4 -4,-280 2328,-280 2328,4 -4,4"/>
<text text-anchor="start" x="1141.01" y="-42.4" font-family="sans-serif" font-weight="bold" font-size="14.00">Legend</text>
<polygon fill="#ffffb3" stroke="transparent" points="928,-10 928,-30 948,-30 948,-10 928,-10"/>
<text text-anchor="start" x="951.63" y="-15.4" font-family="sans-serif" font-size="14.00"> &#160;Declarations</text>
<polygon fill="#8dd3c7" stroke="transparent" points="1041,-10 1041,-30 1061,-30 1061,-10 1041,-10"/>
<text text-anchor="start" x="1064.73" y="-15.4" font-family="sans-serif" font-size="14.00"> &#160;Module</text>
<polygon fill="#80b1d3" stroke="transparent" points="1127,-10 1127,-30 1147,-30 1147,-10 1127,-10"/>
<text text-anchor="start" x="1150.78" y="-15.4" font-family="sans-serif" font-size="14.00"> &#160;Bootstrap</text>
<polygon fill="#fdb462" stroke="transparent" points="1224,-10 1224,-30 1244,-30 1244,-10 1224,-10"/>
<text text-anchor="start" x="1247.67" y="-15.4" font-family="sans-serif" font-size="14.00"> &#160;Providers</text>
<polygon fill="#fb8072" stroke="transparent" points="1320,-10 1320,-30 1340,-30 1340,-10 1320,-10"/>
<text text-anchor="start" x="1343.73" y="-15.4" font-family="sans-serif" font-size="14.00"> &#160;Exports</text>
<g id="clust1" class="cluster">
<title>cluster_AppModule</title>
<polygon fill="none" stroke="black" stroke-dasharray="1,5" points="8,-70 8,-268 2316,-268 2316,-70 8,-70"/>
</g>
<g id="clust2" class="cluster">
<title>cluster_AppModule_declarations</title>
<polygon fill="none" stroke="black" points="168,-78 168,-130 2308,-130 2308,-78 168,-78"/>
</g>
<g id="clust17" class="cluster">
<title>cluster_AppModule_imports</title>
<polygon fill="none" stroke="black" points="16,-78 16,-130 160,-130 160,-78 16,-78"/>
</g>
<g id="clust19" class="cluster">
<title>cluster_AppModule_bootstrap</title>
<polygon fill="none" stroke="black" points="1134,-208 1134,-260 1258,-260 1258,-208 1134,-208"/>
</g>
<!-- AppComponent -->
<g id="node1" class="node">
<title>AppComponent</title>
<polygon fill="#ffffb3" stroke="black" points="2299.94,-122 2194.06,-122 2194.06,-86 2299.94,-86 2299.94,-122"/>
<text text-anchor="middle" x="2247" y="-99.8" font-family="Times,serif" font-size="14.00">AppComponent</text>
</g>
<!-- AppModule -->
<g id="node15" class="node">
<title>AppModule</title>
<polygon fill="#8dd3c7" stroke="black" points="1237.66,-187 1234.66,-191 1213.66,-191 1210.66,-187 1154.34,-187 1154.34,-151 1237.66,-151 1237.66,-187"/>
<text text-anchor="middle" x="1196" y="-164.8" font-family="Times,serif" font-size="14.00">AppModule</text>
</g>
<!-- AppComponent&#45;&gt;AppModule -->
<g id="edge1" class="edge">
<title>AppComponent&#45;&gt;AppModule</title>
<path fill="none" stroke="black" d="M2247,-122.32C2247,-145.66 2247,-183 2247,-183 2247,-183 1247.85,-183 1247.85,-183"/>
<polygon fill="black" stroke="black" points="1247.85,-179.5 1237.85,-183 1247.85,-186.5 1247.85,-179.5"/>
</g>
<!-- BlocoumComponent -->
<g id="node2" class="node">
<title>BlocoumComponent</title>
<polygon fill="#ffffb3" stroke="black" points="2176.17,-122 2043.83,-122 2043.83,-86 2176.17,-86 2176.17,-122"/>
<text text-anchor="middle" x="2110" y="-99.8" font-family="Times,serif" font-size="14.00">BlocoumComponent</text>
</g>
<!-- BlocoumComponent&#45;&gt;AppModule -->
<g id="edge2" class="edge">
<title>BlocoumComponent&#45;&gt;AppModule</title>
<path fill="none" stroke="black" d="M2110,-122.29C2110,-144.21 2110,-178 2110,-178 2110,-178 1247.95,-178 1247.95,-178"/>
<polygon fill="black" stroke="black" points="1247.95,-174.5 1237.95,-178 1247.95,-181.5 1247.95,-174.5"/>
</g>
<!-- EmpreendedorismoComponent -->
<g id="node3" class="node">
<title>EmpreendedorismoComponent</title>
<polygon fill="#ffffb3" stroke="black" points="2025.47,-122 1834.53,-122 1834.53,-86 2025.47,-86 2025.47,-122"/>
<text text-anchor="middle" x="1930" y="-99.8" font-family="Times,serif" font-size="14.00">EmpreendedorismoComponent</text>
</g>
<!-- EmpreendedorismoComponent&#45;&gt;AppModule -->
<g id="edge3" class="edge">
<title>EmpreendedorismoComponent&#45;&gt;AppModule</title>
<path fill="none" stroke="black" d="M1930,-122.03C1930,-142.77 1930,-174 1930,-174 1930,-174 1247.83,-174 1247.83,-174"/>
<polygon fill="black" stroke="black" points="1247.83,-170.5 1237.83,-174 1247.83,-177.5 1247.83,-170.5"/>
</g>
<!-- EscolaComponent -->
<g id="node4" class="node">
<title>EscolaComponent</title>
<polygon fill="#ffffb3" stroke="black" points="1816.15,-122 1697.85,-122 1697.85,-86 1816.15,-86 1816.15,-122"/>
<text text-anchor="middle" x="1757" y="-99.8" font-family="Times,serif" font-size="14.00">EscolaComponent</text>
</g>
<!-- EscolaComponent&#45;&gt;AppModule -->
<g id="edge4" class="edge">
<title>EscolaComponent&#45;&gt;AppModule</title>
<path fill="none" stroke="black" d="M1757,-122.11C1757,-141.34 1757,-169 1757,-169 1757,-169 1247.71,-169 1247.71,-169"/>
<polygon fill="black" stroke="black" points="1247.71,-165.5 1237.71,-169 1247.71,-172.5 1247.71,-165.5"/>
</g>
<!-- FinancasComponent -->
<g id="node5" class="node">
<title>FinancasComponent</title>
<polygon fill="#ffffb3" stroke="black" points="1679.59,-122 1548.41,-122 1548.41,-86 1679.59,-86 1679.59,-122"/>
<text text-anchor="middle" x="1614" y="-99.8" font-family="Times,serif" font-size="14.00">FinancasComponent</text>
</g>
<!-- FinancasComponent&#45;&gt;AppModule -->
<g id="edge5" class="edge">
<title>FinancasComponent&#45;&gt;AppModule</title>
<path fill="none" stroke="black" d="M1614,-122.3C1614,-140.27 1614,-165 1614,-165 1614,-165 1247.99,-165 1247.99,-165"/>
<polygon fill="black" stroke="black" points="1247.99,-161.5 1237.99,-165 1247.99,-168.5 1247.99,-161.5"/>
</g>
<!-- FooterComponent -->
<g id="node6" class="node">
<title>FooterComponent</title>
<polygon fill="#ffffb3" stroke="black" points="1530.88,-122 1413.12,-122 1413.12,-86 1530.88,-86 1530.88,-122"/>
<text text-anchor="middle" x="1472" y="-99.8" font-family="Times,serif" font-size="14.00">FooterComponent</text>
</g>
<!-- FooterComponent&#45;&gt;AppModule -->
<g id="edge6" class="edge">
<title>FooterComponent&#45;&gt;AppModule</title>
<path fill="none" stroke="black" d="M1472,-122.03C1472,-138.4 1472,-160 1472,-160 1472,-160 1247.92,-160 1247.92,-160"/>
<polygon fill="black" stroke="black" points="1247.92,-156.5 1237.92,-160 1247.92,-163.5 1247.92,-156.5"/>
</g>
<!-- HomeComponent -->
<g id="node7" class="node">
<title>HomeComponent</title>
<polygon fill="#ffffb3" stroke="black" points="1394.55,-122 1279.45,-122 1279.45,-86 1394.55,-86 1394.55,-122"/>
<text text-anchor="middle" x="1337" y="-99.8" font-family="Times,serif" font-size="14.00">HomeComponent</text>
</g>
<!-- HomeComponent&#45;&gt;AppModule -->
<g id="edge7" class="edge">
<title>HomeComponent&#45;&gt;AppModule</title>
<path fill="none" stroke="black" d="M1337,-122.19C1337,-137.18 1337,-156 1337,-156 1337,-156 1247.92,-156 1247.92,-156"/>
<polygon fill="black" stroke="black" points="1247.92,-152.5 1237.92,-156 1247.92,-159.5 1247.92,-152.5"/>
</g>
<!-- MercadoComponent -->
<g id="node8" class="node">
<title>MercadoComponent</title>
<polygon fill="#ffffb3" stroke="black" points="1261.58,-122 1130.42,-122 1130.42,-86 1261.58,-86 1261.58,-122"/>
<text text-anchor="middle" x="1196" y="-99.8" font-family="Times,serif" font-size="14.00">MercadoComponent</text>
</g>
<!-- MercadoComponent&#45;&gt;AppModule -->
<g id="edge8" class="edge">
<title>MercadoComponent&#45;&gt;AppModule</title>
<path fill="none" stroke="black" d="M1196,-122.11C1196,-122.11 1196,-140.99 1196,-140.99"/>
<polygon fill="black" stroke="black" points="1192.5,-140.99 1196,-150.99 1199.5,-140.99 1192.5,-140.99"/>
</g>
<!-- NavbarComponent -->
<g id="node9" class="node">
<title>NavbarComponent</title>
<polygon fill="#ffffb3" stroke="black" points="1112.03,-122 989.97,-122 989.97,-86 1112.03,-86 1112.03,-122"/>
<text text-anchor="middle" x="1051" y="-99.8" font-family="Times,serif" font-size="14.00">NavbarComponent</text>
</g>
<!-- NavbarComponent&#45;&gt;AppModule -->
<g id="edge9" class="edge">
<title>NavbarComponent&#45;&gt;AppModule</title>
<path fill="none" stroke="black" d="M1051,-122.19C1051,-137.18 1051,-156 1051,-156 1051,-156 1144.06,-156 1144.06,-156"/>
<polygon fill="black" stroke="black" points="1144.06,-159.5 1154.06,-156 1144.06,-152.5 1144.06,-159.5"/>
</g>
<!-- PagamentoComponent -->
<g id="node10" class="node">
<title>PagamentoComponent</title>
<polygon fill="#ffffb3" stroke="black" points="971.54,-122 828.46,-122 828.46,-86 971.54,-86 971.54,-122"/>
<text text-anchor="middle" x="900" y="-99.8" font-family="Times,serif" font-size="14.00">PagamentoComponent</text>
</g>
<!-- PagamentoComponent&#45;&gt;AppModule -->
<g id="edge10" class="edge">
<title>PagamentoComponent&#45;&gt;AppModule</title>
<path fill="none" stroke="black" d="M900,-122.03C900,-138.4 900,-160 900,-160 900,-160 1144.22,-160 1144.22,-160"/>
<polygon fill="black" stroke="black" points="1144.22,-163.5 1154.22,-160 1144.22,-156.5 1144.22,-163.5"/>
</g>
<!-- SistemaComponent -->
<g id="node11" class="node">
<title>SistemaComponent</title>
<polygon fill="#ffffb3" stroke="black" points="809.66,-122 684.34,-122 684.34,-86 809.66,-86 809.66,-122"/>
<text text-anchor="middle" x="747" y="-99.8" font-family="Times,serif" font-size="14.00">SistemaComponent</text>
</g>
<!-- SistemaComponent&#45;&gt;AppModule -->
<g id="edge11" class="edge">
<title>SistemaComponent&#45;&gt;AppModule</title>
<path fill="none" stroke="black" d="M747,-122.3C747,-140.27 747,-165 747,-165 747,-165 1144.16,-165 1144.16,-165"/>
<polygon fill="black" stroke="black" points="1144.16,-168.5 1154.16,-165 1144.16,-161.5 1144.16,-168.5"/>
</g>
<!-- SolicitarbeneficioComponent -->
<g id="node12" class="node">
<title>SolicitarbeneficioComponent</title>
<polygon fill="#ffffb3" stroke="black" points="666.35,-122 485.65,-122 485.65,-86 666.35,-86 666.35,-122"/>
<text text-anchor="middle" x="576" y="-99.8" font-family="Times,serif" font-size="14.00">SolicitarbeneficioComponent</text>
</g>
<!-- SolicitarbeneficioComponent&#45;&gt;AppModule -->
<g id="edge12" class="edge">
<title>SolicitarbeneficioComponent&#45;&gt;AppModule</title>
<path fill="none" stroke="black" d="M576,-122.11C576,-141.34 576,-169 576,-169 576,-169 1143.87,-169 1143.87,-169"/>
<polygon fill="black" stroke="black" points="1143.87,-172.5 1153.87,-169 1143.87,-165.5 1143.87,-172.5"/>
</g>
<!-- StatusComponent -->
<g id="node13" class="node">
<title>StatusComponent</title>
<polygon fill="#ffffb3" stroke="black" points="467.56,-122 352.44,-122 352.44,-86 467.56,-86 467.56,-122"/>
<text text-anchor="middle" x="410" y="-99.8" font-family="Times,serif" font-size="14.00">StatusComponent</text>
</g>
<!-- StatusComponent&#45;&gt;AppModule -->
<g id="edge13" class="edge">
<title>StatusComponent&#45;&gt;AppModule</title>
<path fill="none" stroke="black" d="M410,-122.03C410,-142.77 410,-174 410,-174 410,-174 1144.3,-174 1144.3,-174"/>
<polygon fill="black" stroke="black" points="1144.3,-177.5 1154.3,-174 1144.3,-170.5 1144.3,-177.5"/>
</g>
<!-- TransferenciaComponent -->
<g id="node14" class="node">
<title>TransferenciaComponent</title>
<polygon fill="#ffffb3" stroke="black" points="334.28,-122 175.72,-122 175.72,-86 334.28,-86 334.28,-122"/>
<text text-anchor="middle" x="255" y="-99.8" font-family="Times,serif" font-size="14.00">TransferenciaComponent</text>
</g>
<!-- TransferenciaComponent&#45;&gt;AppModule -->
<g id="edge14" class="edge">
<title>TransferenciaComponent&#45;&gt;AppModule</title>
<path fill="none" stroke="black" d="M255,-122.29C255,-144.21 255,-178 255,-178 255,-178 1144.05,-178 1144.05,-178"/>
<polygon fill="black" stroke="black" points="1144.05,-181.5 1154.05,-178 1144.05,-174.5 1144.05,-181.5"/>
</g>
<!-- AppComponent  -->
<g id="node17" class="node">
<title>AppComponent </title>
<polygon fill="#80b1d3" stroke="black" points="1250.44,-252 1141.56,-252 1141.56,-216 1250.44,-216 1250.44,-252"/>
<text text-anchor="middle" x="1196" y="-229.8" font-family="Times,serif" font-size="14.00">AppComponent </text>
</g>
<!-- AppModule&#45;&gt;AppComponent  -->
<g id="edge16" class="edge">
<title>AppModule&#45;&gt;AppComponent </title>
<path fill="none" stroke="black" stroke-dasharray="1,5" d="M1196,-187.11C1196,-187.11 1196,-205.99 1196,-205.99"/>
<polygon fill="black" stroke="black" points="1192.5,-205.99 1196,-215.99 1199.5,-205.99 1192.5,-205.99"/>
</g>
<!-- AppRoutingModule -->
<g id="node16" class="node">
<title>AppRoutingModule</title>
<polygon fill="#8dd3c7" stroke="black" points="152.27,-122 149.27,-126 128.27,-126 125.27,-122 23.73,-122 23.73,-86 152.27,-86 152.27,-122"/>
<text text-anchor="middle" x="88" y="-99.8" font-family="Times,serif" font-size="14.00">AppRoutingModule</text>
</g>
<!-- AppRoutingModule&#45;&gt;AppModule -->
<g id="edge15" class="edge">
<title>AppRoutingModule&#45;&gt;AppModule</title>
<path fill="none" stroke="black" d="M88,-122.32C88,-145.66 88,-183 88,-183 88,-183 1144.25,-183 1144.25,-183"/>
<polygon fill="black" stroke="black" points="1144.25,-186.5 1154.25,-183 1144.25,-179.5 1144.25,-186.5"/>
</g>
</g>
</svg>
